<mxfile host="65bd71144e">
    <diagram id="MRyNq_xAy4_W80hvWORJ" name="Visão geral">
        <mxGraphModel dx="782" dy="568" grid="1" gridSize="10" guides="1" tooltips="1" connect="1" arrows="1" fold="1" page="1" pageScale="1" pageWidth="850" pageHeight="1100" math="0" shadow="0">
            <root>
                <mxCell id="0"/>
                <mxCell id="1" parent="0"/>
                <mxCell id="mu8KOszkLtj6giQJ0sUX-28" value="E-comércio" style="shape=umlFrame;whiteSpace=wrap;html=1;width=120;height=30;boundedLbl=1;verticalAlign=middle;align=left;spacingLeft=5;" parent="1" vertex="1">
                    <mxGeometry x="200" y="40" width="360" height="520" as="geometry"/>
                </mxCell>
                <mxCell id="mu8KOszkLtj6giQJ0sUX-29" style="edgeStyle=none;html=1;exitX=1;exitY=0.3333333333333333;exitDx=0;exitDy=0;exitPerimeter=0;" parent="1" source="mu8KOszkLtj6giQJ0sUX-34" target="mu8KOszkLtj6giQJ0sUX-38" edge="1">
                    <mxGeometry relative="1" as="geometry">
                        <Array as="points"/>
                    </mxGeometry>
                </mxCell>
                <mxCell id="mu8KOszkLtj6giQJ0sUX-30" style="edgeStyle=none;html=1;entryX=0;entryY=0.5;entryDx=0;entryDy=0;exitX=1;exitY=0.3333333333333333;exitDx=0;exitDy=0;exitPerimeter=0;" parent="1" source="mu8KOszkLtj6giQJ0sUX-34" target="mu8KOszkLtj6giQJ0sUX-37" edge="1">
                    <mxGeometry relative="1" as="geometry">
                        <mxPoint x="160" y="460" as="sourcePoint"/>
                    </mxGeometry>
                </mxCell>
                <mxCell id="mu8KOszkLtj6giQJ0sUX-31" style="edgeStyle=none;html=1;exitX=1;exitY=0.3333333333333333;exitDx=0;exitDy=0;exitPerimeter=0;entryX=0;entryY=0.5;entryDx=0;entryDy=0;" parent="1" source="mu8KOszkLtj6giQJ0sUX-34" target="mu8KOszkLtj6giQJ0sUX-36" edge="1">
                    <mxGeometry relative="1" as="geometry"/>
                </mxCell>
                <mxCell id="mu8KOszkLtj6giQJ0sUX-32" style="edgeStyle=none;html=1;" parent="1" source="mu8KOszkLtj6giQJ0sUX-34" edge="1">
                    <mxGeometry relative="1" as="geometry">
                        <mxPoint x="80" y="380" as="targetPoint"/>
                    </mxGeometry>
                </mxCell>
                <mxCell id="mu8KOszkLtj6giQJ0sUX-33" style="edgeStyle=none;html=1;exitX=1;exitY=0.3333333333333333;exitDx=0;exitDy=0;exitPerimeter=0;entryX=0;entryY=0.5;entryDx=0;entryDy=0;" parent="1" source="mu8KOszkLtj6giQJ0sUX-34" target="mu8KOszkLtj6giQJ0sUX-39" edge="1">
                    <mxGeometry relative="1" as="geometry"/>
                </mxCell>
                <mxCell id="mu8KOszkLtj6giQJ0sUX-34" value="ADM" style="shape=umlActor;verticalLabelPosition=bottom;verticalAlign=top;html=1;" parent="1" vertex="1">
                    <mxGeometry x="110" y="430" width="30" height="60" as="geometry"/>
                </mxCell>
                <mxCell id="mu8KOszkLtj6giQJ0sUX-35" value="Gerenciar carrinho" style="ellipse;whiteSpace=wrap;html=1;" parent="1" vertex="1">
                    <mxGeometry x="210" y="240" width="140" height="70" as="geometry"/>
                </mxCell>
                <mxCell id="mu8KOszkLtj6giQJ0sUX-36" value="Gerenciar pedido" style="ellipse;whiteSpace=wrap;html=1;" parent="1" vertex="1">
                    <mxGeometry x="210" y="320" width="140" height="70" as="geometry"/>
                </mxCell>
                <object label="Gerenciar produtos" id="mu8KOszkLtj6giQJ0sUX-37">
                    <mxCell style="ellipse;whiteSpace=wrap;html=1;" parent="1" vertex="1">
                        <mxGeometry x="210" y="400" width="140" height="70" as="geometry"/>
                    </mxCell>
                </object>
                <mxCell id="mu8KOszkLtj6giQJ0sUX-38" value="Gerenciar categoria" style="ellipse;whiteSpace=wrap;html=1;" parent="1" vertex="1">
                    <mxGeometry x="210" y="480" width="140" height="70" as="geometry"/>
                </mxCell>
                <mxCell id="mu8KOszkLtj6giQJ0sUX-39" value="Gerenciar usuário" style="ellipse;whiteSpace=wrap;html=1;" parent="1" vertex="1">
                    <mxGeometry x="210" y="160" width="140" height="70" as="geometry"/>
                </mxCell>
                <mxCell id="mu8KOszkLtj6giQJ0sUX-40" style="edgeStyle=none;html=1;entryX=0;entryY=0.5;entryDx=0;entryDy=0;exitX=1;exitY=0.3333333333333333;exitDx=0;exitDy=0;exitPerimeter=0;" parent="1" source="mu8KOszkLtj6giQJ0sUX-44" target="mu8KOszkLtj6giQJ0sUX-36" edge="1">
                    <mxGeometry relative="1" as="geometry"/>
                </mxCell>
                <mxCell id="mu8KOszkLtj6giQJ0sUX-41" style="edgeStyle=none;html=1;exitX=1;exitY=0.3333333333333333;exitDx=0;exitDy=0;exitPerimeter=0;entryX=0;entryY=0.5;entryDx=0;entryDy=0;" parent="1" source="mu8KOszkLtj6giQJ0sUX-44" target="mu8KOszkLtj6giQJ0sUX-35" edge="1">
                    <mxGeometry relative="1" as="geometry"/>
                </mxCell>
                <mxCell id="mu8KOszkLtj6giQJ0sUX-42" style="edgeStyle=none;html=1;" parent="1" source="mu8KOszkLtj6giQJ0sUX-44" edge="1">
                    <mxGeometry relative="1" as="geometry">
                        <mxPoint x="80" y="360" as="targetPoint"/>
                    </mxGeometry>
                </mxCell>
                <mxCell id="mu8KOszkLtj6giQJ0sUX-43" style="edgeStyle=none;html=1;exitX=1;exitY=0.3333333333333333;exitDx=0;exitDy=0;exitPerimeter=0;entryX=0;entryY=0.5;entryDx=0;entryDy=0;" parent="1" source="mu8KOszkLtj6giQJ0sUX-44" target="mu8KOszkLtj6giQJ0sUX-39" edge="1">
                    <mxGeometry relative="1" as="geometry">
                        <mxPoint x="140" y="210" as="targetPoint"/>
                    </mxGeometry>
                </mxCell>
                <mxCell id="mu8KOszkLtj6giQJ0sUX-44" value="Cliente" style="shape=umlActor;verticalLabelPosition=bottom;verticalAlign=top;html=1;" parent="1" vertex="1">
                    <mxGeometry x="110" y="260" width="30" height="60" as="geometry"/>
                </mxCell>
                <mxCell id="mu8KOszkLtj6giQJ0sUX-45" value="Usuário" style="shape=umlActor;verticalLabelPosition=bottom;verticalAlign=top;html=1;" parent="1" vertex="1">
                    <mxGeometry x="40" y="340" width="30" height="60" as="geometry"/>
                </mxCell>
            </root>
        </mxGraphModel>
    </diagram>
    <diagram id="YUNqZBU7u1cdBpxypdCy" name="Subdomínio - Catálogo">
        <mxGraphModel dx="782" dy="568" grid="1" gridSize="10" guides="1" tooltips="1" connect="1" arrows="1" fold="1" page="1" pageScale="1" pageWidth="850" pageHeight="1100" math="0" shadow="0">
            <root>
                <mxCell id="0"/>
                <mxCell id="1" parent="0"/>
                <mxCell id="L8GtCw55xcFPWw59osvT-1" value="Subdomínio - catálogo" style="shape=umlFrame;whiteSpace=wrap;html=1;width=120;height=30;boundedLbl=1;verticalAlign=middle;align=left;spacingLeft=5;" parent="1" vertex="1">
                    <mxGeometry x="120" y="40" width="720" height="800" as="geometry"/>
                </mxCell>
                <mxCell id="L8GtCw55xcFPWw59osvT-13" style="edgeStyle=none;html=1;exitX=1;exitY=0.3333333333333333;exitDx=0;exitDy=0;exitPerimeter=0;entryX=0;entryY=0;entryDx=0;entryDy=0;" parent="1" source="_bqw30x7r8TBNo5rcctJ-2" target="L8GtCw55xcFPWw59osvT-4" edge="1">
                    <mxGeometry relative="1" as="geometry">
                        <mxPoint x="80" y="640" as="sourcePoint"/>
                    </mxGeometry>
                </mxCell>
                <mxCell id="L8GtCw55xcFPWw59osvT-4" value="Gerenciar categoria" style="ellipse;whiteSpace=wrap;html=1;" parent="1" vertex="1">
                    <mxGeometry x="160" y="600" width="118" height="80" as="geometry"/>
                </mxCell>
                <mxCell id="L8GtCw55xcFPWw59osvT-5" value="Atualizar categoria" style="ellipse;whiteSpace=wrap;html=1;" parent="1" vertex="1">
                    <mxGeometry x="360" y="570" width="120" height="60" as="geometry"/>
                </mxCell>
                <mxCell id="L8GtCw55xcFPWw59osvT-6" value="Recuperar categoria" style="ellipse;whiteSpace=wrap;html=1;" parent="1" vertex="1">
                    <mxGeometry x="360" y="650" width="120" height="60" as="geometry"/>
                </mxCell>
                <mxCell id="L8GtCw55xcFPWw59osvT-7" value="Deletar categoria" style="ellipse;whiteSpace=wrap;html=1;" parent="1" vertex="1">
                    <mxGeometry x="360" y="730" width="120" height="60" as="geometry"/>
                </mxCell>
                <mxCell id="L8GtCw55xcFPWw59osvT-8" value="Criar categoria" style="ellipse;whiteSpace=wrap;html=1;" parent="1" vertex="1">
                    <mxGeometry x="360" y="490" width="120" height="60" as="geometry"/>
                </mxCell>
                <mxCell id="L8GtCw55xcFPWw59osvT-9" value="Recuperar categoria por ID" style="ellipse;whiteSpace=wrap;html=1;" parent="1" vertex="1">
                    <mxGeometry x="560" y="530" width="120" height="60" as="geometry"/>
                </mxCell>
                <mxCell id="L8GtCw55xcFPWw59osvT-10" value="Recuperar por filtro" style="ellipse;whiteSpace=wrap;html=1;" parent="1" vertex="1">
                    <mxGeometry x="560" y="610" width="120" height="60" as="geometry"/>
                </mxCell>
                <mxCell id="L8GtCw55xcFPWw59osvT-11" value="" style="html=1;verticalAlign=bottom;labelBackgroundColor=none;endArrow=block;endFill=1;exitX=0;exitY=0.5;exitDx=0;exitDy=0;entryX=1;entryY=0;entryDx=0;entryDy=0;" parent="1" source="L8GtCw55xcFPWw59osvT-9" target="L8GtCw55xcFPWw59osvT-5" edge="1">
                    <mxGeometry width="160" relative="1" as="geometry">
                        <mxPoint x="378" y="600" as="sourcePoint"/>
                        <mxPoint x="538" y="600" as="targetPoint"/>
                    </mxGeometry>
                </mxCell>
                <mxCell id="L8GtCw55xcFPWw59osvT-12" value="" style="html=1;verticalAlign=bottom;labelBackgroundColor=none;endArrow=block;endFill=1;exitX=0;exitY=0.5;exitDx=0;exitDy=0;entryX=1;entryY=1;entryDx=0;entryDy=0;" parent="1" source="L8GtCw55xcFPWw59osvT-10" target="L8GtCw55xcFPWw59osvT-5" edge="1">
                    <mxGeometry width="160" relative="1" as="geometry">
                        <mxPoint x="378" y="600" as="sourcePoint"/>
                        <mxPoint x="538" y="600" as="targetPoint"/>
                    </mxGeometry>
                </mxCell>
                <mxCell id="L8GtCw55xcFPWw59osvT-14" value="&amp;lt;&amp;lt;extend&amp;gt;&amp;gt;" style="html=1;verticalAlign=bottom;labelBackgroundColor=none;endArrow=open;endFill=0;dashed=1;exitX=0;exitY=0.5;exitDx=0;exitDy=0;entryX=0.5;entryY=0;entryDx=0;entryDy=0;" parent="1" source="L8GtCw55xcFPWw59osvT-8" target="L8GtCw55xcFPWw59osvT-4" edge="1">
                    <mxGeometry width="160" relative="1" as="geometry">
                        <mxPoint x="320" y="600" as="sourcePoint"/>
                        <mxPoint x="480" y="600" as="targetPoint"/>
                    </mxGeometry>
                </mxCell>
                <mxCell id="L8GtCw55xcFPWw59osvT-15" value="&amp;lt;&amp;lt;extend&amp;gt;&amp;gt;" style="html=1;verticalAlign=bottom;labelBackgroundColor=none;endArrow=open;endFill=0;dashed=1;exitX=0;exitY=0.5;exitDx=0;exitDy=0;entryX=1;entryY=0;entryDx=0;entryDy=0;" parent="1" source="L8GtCw55xcFPWw59osvT-5" target="L8GtCw55xcFPWw59osvT-4" edge="1">
                    <mxGeometry width="160" relative="1" as="geometry">
                        <mxPoint x="320" y="600" as="sourcePoint"/>
                        <mxPoint x="480" y="600" as="targetPoint"/>
                    </mxGeometry>
                </mxCell>
                <mxCell id="L8GtCw55xcFPWw59osvT-16" value="&amp;lt;&amp;lt;extend&amp;gt;&amp;gt;" style="html=1;verticalAlign=bottom;labelBackgroundColor=none;endArrow=open;endFill=0;dashed=1;exitX=0;exitY=0.5;exitDx=0;exitDy=0;entryX=1;entryY=1;entryDx=0;entryDy=0;" parent="1" source="L8GtCw55xcFPWw59osvT-6" target="L8GtCw55xcFPWw59osvT-4" edge="1">
                    <mxGeometry x="-0.0806" y="9" width="160" relative="1" as="geometry">
                        <mxPoint x="320" y="600" as="sourcePoint"/>
                        <mxPoint x="480" y="600" as="targetPoint"/>
                        <mxPoint as="offset"/>
                    </mxGeometry>
                </mxCell>
                <mxCell id="L8GtCw55xcFPWw59osvT-17" value="&amp;lt;&amp;lt;extend&amp;gt;&amp;gt;" style="html=1;verticalAlign=bottom;labelBackgroundColor=none;endArrow=open;endFill=0;dashed=1;exitX=0;exitY=0.5;exitDx=0;exitDy=0;entryX=0.5;entryY=1;entryDx=0;entryDy=0;" parent="1" source="L8GtCw55xcFPWw59osvT-7" target="L8GtCw55xcFPWw59osvT-4" edge="1">
                    <mxGeometry width="160" relative="1" as="geometry">
                        <mxPoint x="320" y="600" as="sourcePoint"/>
                        <mxPoint x="480" y="600" as="targetPoint"/>
                    </mxGeometry>
                </mxCell>
                <mxCell id="_bqw30x7r8TBNo5rcctJ-1" style="edgeStyle=none;html=1;entryX=0;entryY=0.5;entryDx=0;entryDy=0;exitX=1;exitY=0.3333333333333333;exitDx=0;exitDy=0;exitPerimeter=0;" parent="1" target="_bqw30x7r8TBNo5rcctJ-3" edge="1" source="_bqw30x7r8TBNo5rcctJ-2">
                    <mxGeometry relative="1" as="geometry">
                        <mxPoint x="80" y="426.66666666666663" as="sourcePoint"/>
                    </mxGeometry>
                </mxCell>
                <mxCell id="_bqw30x7r8TBNo5rcctJ-2" value="Adm" style="shape=umlActor;verticalLabelPosition=bottom;verticalAlign=top;html=1;" parent="1" vertex="1">
                    <mxGeometry x="40" y="390" width="40" height="80" as="geometry"/>
                </mxCell>
                <mxCell id="_bqw30x7r8TBNo5rcctJ-3" value="Gerenciar produto" style="ellipse;whiteSpace=wrap;html=1;" parent="1" vertex="1">
                    <mxGeometry x="160" y="200" width="118" height="80" as="geometry"/>
                </mxCell>
                <mxCell id="_bqw30x7r8TBNo5rcctJ-4" value="Atualizar produto" style="ellipse;whiteSpace=wrap;html=1;" parent="1" vertex="1">
                    <mxGeometry x="360" y="170" width="120" height="60" as="geometry"/>
                </mxCell>
                <mxCell id="_bqw30x7r8TBNo5rcctJ-5" value="Recuperar produto" style="ellipse;whiteSpace=wrap;html=1;" parent="1" vertex="1">
                    <mxGeometry x="360" y="250" width="120" height="60" as="geometry"/>
                </mxCell>
                <mxCell id="_bqw30x7r8TBNo5rcctJ-6" value="Deletar produto" style="ellipse;whiteSpace=wrap;html=1;" parent="1" vertex="1">
                    <mxGeometry x="360" y="330" width="120" height="60" as="geometry"/>
                </mxCell>
                <mxCell id="_bqw30x7r8TBNo5rcctJ-7" value="Criar produto" style="ellipse;whiteSpace=wrap;html=1;" parent="1" vertex="1">
                    <mxGeometry x="360" y="90" width="120" height="60" as="geometry"/>
                </mxCell>
                <mxCell id="_bqw30x7r8TBNo5rcctJ-8" value="Recuperar produto por ID" style="ellipse;whiteSpace=wrap;html=1;" parent="1" vertex="1">
                    <mxGeometry x="520" y="130" width="120" height="60" as="geometry"/>
                </mxCell>
                <mxCell id="_bqw30x7r8TBNo5rcctJ-9" value="Recuperar por filtro" style="ellipse;whiteSpace=wrap;html=1;" parent="1" vertex="1">
                    <mxGeometry x="520" y="210" width="120" height="60" as="geometry"/>
                </mxCell>
                <mxCell id="_bqw30x7r8TBNo5rcctJ-10" value="" style="html=1;verticalAlign=bottom;labelBackgroundColor=none;endArrow=block;endFill=1;exitX=0;exitY=0.5;exitDx=0;exitDy=0;entryX=1;entryY=0;entryDx=0;entryDy=0;" parent="1" source="_bqw30x7r8TBNo5rcctJ-8" target="_bqw30x7r8TBNo5rcctJ-4" edge="1">
                    <mxGeometry width="160" relative="1" as="geometry">
                        <mxPoint x="378" y="200" as="sourcePoint"/>
                        <mxPoint x="538" y="200" as="targetPoint"/>
                    </mxGeometry>
                </mxCell>
                <mxCell id="_bqw30x7r8TBNo5rcctJ-11" value="" style="html=1;verticalAlign=bottom;labelBackgroundColor=none;endArrow=block;endFill=1;exitX=0;exitY=0.5;exitDx=0;exitDy=0;entryX=1;entryY=1;entryDx=0;entryDy=0;" parent="1" source="_bqw30x7r8TBNo5rcctJ-9" target="_bqw30x7r8TBNo5rcctJ-4" edge="1">
                    <mxGeometry width="160" relative="1" as="geometry">
                        <mxPoint x="378" y="200" as="sourcePoint"/>
                        <mxPoint x="538" y="200" as="targetPoint"/>
                    </mxGeometry>
                </mxCell>
                <mxCell id="_bqw30x7r8TBNo5rcctJ-12" value="&amp;lt;&amp;lt;extend&amp;gt;&amp;gt;" style="html=1;verticalAlign=bottom;labelBackgroundColor=none;endArrow=open;endFill=0;dashed=1;exitX=0;exitY=0.5;exitDx=0;exitDy=0;entryX=0.5;entryY=0;entryDx=0;entryDy=0;" parent="1" source="_bqw30x7r8TBNo5rcctJ-7" target="_bqw30x7r8TBNo5rcctJ-3" edge="1">
                    <mxGeometry x="0.0437" y="4" width="160" relative="1" as="geometry">
                        <mxPoint x="320" y="200" as="sourcePoint"/>
                        <mxPoint x="480" y="200" as="targetPoint"/>
                        <mxPoint as="offset"/>
                    </mxGeometry>
                </mxCell>
                <mxCell id="_bqw30x7r8TBNo5rcctJ-13" value="&amp;lt;&amp;lt;extend&amp;gt;&amp;gt;" style="html=1;verticalAlign=bottom;labelBackgroundColor=none;endArrow=open;endFill=0;dashed=1;exitX=0;exitY=0.5;exitDx=0;exitDy=0;entryX=1;entryY=0;entryDx=0;entryDy=0;" parent="1" source="_bqw30x7r8TBNo5rcctJ-4" target="_bqw30x7r8TBNo5rcctJ-3" edge="1">
                    <mxGeometry x="0.0169" width="160" relative="1" as="geometry">
                        <mxPoint x="360" y="200" as="sourcePoint"/>
                        <mxPoint x="313.0440000000001" y="222.87999999999988" as="targetPoint"/>
                        <mxPoint x="1" as="offset"/>
                    </mxGeometry>
                </mxCell>
                <mxCell id="_bqw30x7r8TBNo5rcctJ-14" value="&amp;lt;&amp;lt;extend&amp;gt;&amp;gt;" style="html=1;verticalAlign=bottom;labelBackgroundColor=none;endArrow=open;endFill=0;dashed=1;exitX=0;exitY=0.5;exitDx=0;exitDy=0;entryX=1;entryY=1;entryDx=0;entryDy=0;" parent="1" source="_bqw30x7r8TBNo5rcctJ-5" target="_bqw30x7r8TBNo5rcctJ-3" edge="1">
                    <mxGeometry x="-0.0802" y="9" width="160" relative="1" as="geometry">
                        <mxPoint x="360" y="200" as="sourcePoint"/>
                        <mxPoint x="310" y="270" as="targetPoint"/>
                        <mxPoint as="offset"/>
                    </mxGeometry>
                </mxCell>
                <mxCell id="_bqw30x7r8TBNo5rcctJ-15" value="&amp;lt;&amp;lt;extend&amp;gt;&amp;gt;" style="html=1;verticalAlign=bottom;labelBackgroundColor=none;endArrow=open;endFill=0;dashed=1;exitX=0;exitY=0.5;exitDx=0;exitDy=0;entryX=1;entryY=1;entryDx=0;entryDy=0;" parent="1" source="_bqw30x7r8TBNo5rcctJ-6" target="_bqw30x7r8TBNo5rcctJ-3" edge="1">
                    <mxGeometry x="-0.0547" y="3" width="160" relative="1" as="geometry">
                        <mxPoint x="320" y="200" as="sourcePoint"/>
                        <mxPoint x="250" y="280" as="targetPoint"/>
                        <mxPoint as="offset"/>
                    </mxGeometry>
                </mxCell>
                <mxCell id="_bqw30x7r8TBNo5rcctJ-16" value="Adicionar categoria ao produto" style="ellipse;whiteSpace=wrap;html=1;" parent="1" vertex="1">
                    <mxGeometry x="360" y="410" width="120" height="60" as="geometry"/>
                </mxCell>
                <mxCell id="_bqw30x7r8TBNo5rcctJ-17" value="&amp;lt;&amp;lt;extend&amp;gt;&amp;gt;" style="html=1;verticalAlign=bottom;labelBackgroundColor=none;endArrow=open;endFill=0;dashed=1;exitX=0;exitY=0.5;exitDx=0;exitDy=0;entryX=0.5;entryY=1;entryDx=0;entryDy=0;" parent="1" source="_bqw30x7r8TBNo5rcctJ-16" target="_bqw30x7r8TBNo5rcctJ-3" edge="1">
                    <mxGeometry x="-0.0547" y="3" width="160" relative="1" as="geometry">
                        <mxPoint x="320" y="200" as="sourcePoint"/>
                        <mxPoint x="480" y="200" as="targetPoint"/>
                        <mxPoint as="offset"/>
                    </mxGeometry>
                </mxCell>
                <mxCell id="_bqw30x7r8TBNo5rcctJ-47" value="Recuperar por categoria" style="ellipse;whiteSpace=wrap;html=1;" parent="1" vertex="1">
                    <mxGeometry x="680" y="210" width="120" height="60" as="geometry"/>
                </mxCell>
                <mxCell id="_bqw30x7r8TBNo5rcctJ-49" value="&amp;lt;&amp;lt;extend&amp;gt;&amp;gt;" style="html=1;verticalAlign=bottom;labelBackgroundColor=none;endArrow=open;endFill=0;dashed=1;exitX=0;exitY=0.5;exitDx=0;exitDy=0;entryX=1;entryY=0.5;entryDx=0;entryDy=0;" parent="1" source="_bqw30x7r8TBNo5rcctJ-47" target="_bqw30x7r8TBNo5rcctJ-9" edge="1">
                    <mxGeometry width="160" relative="1" as="geometry">
                        <mxPoint x="370" y="250" as="sourcePoint"/>
                        <mxPoint x="530" y="250" as="targetPoint"/>
                    </mxGeometry>
                </mxCell>
            </root>
        </mxGraphModel>
    </diagram>
</mxfile>